<svg width="512" height="512" viewBox="0 0 512 512" fill="none" xmlns="http://www.w3.org/2000/svg">
<path d="M157.6 59.76C159.136 71.9543 161.353 84.0532 164.24 96C164.88 96.96 170.88 92 171.2 90.96C171.52 89.92 168.72 75.36 168.72 74.4C174.55 75.1956 180.323 76.3714 186 77.92C186.96 77.92 186.96 72.24 186.96 70.96C177.56 66.2822 167.727 62.5312 157.6 59.76ZM313.68 58.88C304.454 63.5177 295.829 69.2671 288 76C289.36 77.28 290.32 80.32 292.32 80.96C294.32 81.6 294.64 78.64 302.24 73.6C309.94 69.4567 317.967 65.9517 326.24 63.12C327.2 62.48 325.2 57.12 323.52 55.12C321.84 53.12 323.28 55.44 313.68 58.88ZM461.52 307.44C436.88 302.32 435.84 295.04 436.8 293.68C437.76 292.32 449.04 290.56 474.72 256.48C491.543 231.844 498.849 201.938 495.28 172.32C493.92 168.32 487.92 169.04 476.72 173.76C466.187 178.21 455.328 181.848 444.24 184.64C442.88 184.64 446.56 179.68 461.52 144.64C476.48 109.6 473.28 82.08 470 81.76C466.72 81.44 432.24 98.32 410.4 105.76C393.367 111.308 375.592 114.248 357.68 114.48C354.32 113.52 373.68 24.64 372.56 22.32C371.44 20 355.92 18.32 317.12 32C290.622 42.169 265.685 56.011 243.04 73.12C243.04 73.12 235.04 58.88 195.04 44.24C173.384 35.3609 150.462 29.961 127.12 28.24C125.44 28.24 128.24 41.2 131.04 60.72C133.84 80.24 137.12 116.16 137.12 117.12C137.12 118.08 127.52 118.56 105.12 118.4C82.7199 118.24 33.9999 116 30.7199 117.36C27.4399 118.72 27.5199 136.64 42.7199 169.04C52.0214 188.748 64.1492 206.994 78.7199 223.2C78.7199 223.2 64.5599 233.92 48.3199 247.2C34.6696 259.679 22.9663 274.133 13.5999 290.08C12.6399 292.72 23.9999 300 45.5999 302.48C60.8129 304.634 75.683 308.749 89.8399 314.72C89.8399 314.72 83.9199 321.76 72.3999 333.12C60.8799 344.48 31.9999 393.6 29.4399 398.56C26.8799 403.52 33.5199 410.16 39.1999 410.08C44.8799 410 114.24 407.2 118.24 406.8C122.24 406.4 106 459.36 105.36 461.04C104.72 462.72 116 465.28 137.36 462.8C151.955 460.015 165.4 452.972 176 442.56C181.16 448.38 187.274 453.276 194.08 457.04C205.484 462.485 217.799 465.768 230.4 466.72C230.4 466.72 231.52 486 232.24 488.32C232.96 490.64 241.92 490.56 245.52 490.56C249.727 490.227 253.953 490.227 258.16 490.56C260.788 491.198 263.531 491.198 266.16 490.56C270.346 489.881 274.614 489.881 278.8 490.56C280.011 490.84 281.27 490.834 282.478 490.542C283.686 490.251 284.81 489.681 285.76 488.88C286.4 487.52 286.56 464.88 286.56 464.88C290.997 464.231 295.345 463.077 299.52 461.44C306.48 458.72 335.92 443.2 335.92 443.2C338.885 446.169 342.126 448.848 345.6 451.2C360.273 458.515 375.888 463.765 392 466.8C409.6 470 420.56 463.28 421.84 458.8C423.12 454.32 422.72 401.36 421.84 398.64C420.96 395.92 423.12 396 455.84 376.48C466.576 370.011 475.894 361.44 483.235 351.281C490.576 341.122 495.789 329.584 498.56 317.36C498.72 312 486.08 312.56 461.52 307.44ZM273.84 482.64C269.838 483.844 265.591 483.982 261.52 483.04C257.809 481.161 253.674 480.279 249.52 480.48C246.24 481.2 244.24 483.52 243.2 482.16C241.925 477.173 241.439 472.017 241.76 466.88C242.72 465.92 251.76 467.44 260.72 466.88C269.68 466.32 274 466.48 274 467.44C274 468.4 275.2 482.32 273.84 482.64ZM339.76 418.64C336.63 422.375 333.206 425.853 329.52 429.04C323.375 424.167 316.786 419.882 309.84 416.24C308.16 416.88 305.84 419.28 306.56 420.56C307.28 421.84 322.56 432.72 321.92 433.76C321.28 434.8 312.64 440.8 311.68 439.84C305.427 434.413 298.855 429.364 292 424.72C290.64 424.72 286.72 427.76 287.36 429.04C288 430.32 306.4 442.16 304.4 443.52C302.4 444.88 291.84 449.6 290.48 448.64C289.12 447.68 275.04 433.12 273.76 433.2C272.48 433.28 268.8 435.2 269.84 436.88C270.88 438.56 281.28 451.04 281.28 451.04C259.632 453.629 237.738 453.36 216.16 450.24C186.56 444.8 165.68 412.08 156.16 377.28C146.64 342.48 146.64 268.4 156.96 227.44C167.28 186.48 185.52 137.84 249.6 137.36C281.6 137.36 320.4 139.12 350.64 192C380.88 244.88 377.6 287.2 369.36 334.48C361.12 381.76 348 410 339.84 419.04L339.76 418.64ZM437.76 373.68C409.68 388.16 406.32 389.68 405.76 392.16C405.2 394.64 407.2 450.24 404.88 450.64C391.339 449.495 377.942 447.03 364.88 443.28C353.52 439.36 348.88 435.76 348.88 434.8C357.915 423.774 365.522 411.652 371.52 398.72C374.734 391.043 376.913 382.972 378 374.72C378 374.72 414.56 376.4 418 350.72C421.44 325.04 403.44 320.88 398.16 320C394.67 319.192 391.102 318.762 387.52 318.72C387.52 318.72 396.8 236.24 368.88 190.72C340.96 145.2 311.2 121.12 250.8 123.6C190.4 126.08 158.08 157.84 143.28 219.6C128.48 281.36 132.4 316.64 132.4 316.64C132.4 316.64 102.88 317.84 103.84 354.4C104.8 390.96 143.28 383.68 143.28 383.68C143.049 394.712 146.083 405.566 152 414.88C161.76 429.76 166.08 435.36 166.08 435.36C166.08 435.36 127.12 450.24 126.8 448C126.48 445.76 136.8 411.68 135.44 408C134.08 404.32 127.44 397.12 125.04 397.12C122.64 397.12 47.3599 400.4 46.6399 397.12C45.9199 393.84 63.3599 367.12 80.7999 345.04C98.2399 322.96 106.8 314.64 106.48 311.6C106.16 308.56 94.3999 294.72 68.7999 290.96C43.1999 287.2 32.8799 288 33.5199 286.64C46.0559 270.527 60.4186 255.923 76.3199 243.12C84.2367 238.854 91.1191 232.9 96.4799 225.68C82.8539 210.454 70.9176 193.797 60.8799 176C46.7199 149.52 45.9199 131.92 46.8799 130.96C49.2799 128.56 154.8 131.44 155.12 129.44C155.44 127.44 140.16 40 143.2 40C168.185 47.3109 192.321 57.2602 215.2 69.68C236.24 83.12 237.28 88.08 242.88 87.76C248.48 87.44 274.88 62.24 310.32 48.72C345.76 35.2 357.68 34.4 357.68 35.76C357.68 37.12 346.24 94.16 344 104.8C341.76 115.44 340.48 126.72 342.88 127.36C365.156 128.001 387.402 125.304 408.88 119.36C440.4 110.48 462.88 98 463.2 100.32C455.739 125.351 446.046 149.662 434.24 172.96C424.72 187.68 420.8 200.32 422.8 201.28C424.8 202.24 436.08 198.88 457.6 192.4C479.12 185.92 481.6 184.88 481.6 185.92C481.977 207.595 475.846 228.885 464 247.04C451.155 264.434 436.216 280.18 419.52 293.92C420.651 298.285 422.651 302.377 425.4 305.951C428.149 309.525 431.591 312.507 435.52 314.72C444.88 318.96 481.12 324.32 480.8 326.32C472.071 346.524 456.95 363.303 437.76 374.08V373.68ZM387.92 331.2C388.96 330.16 406.88 331.2 403.92 346.72C400.96 362.24 381.6 368 381.2 365.92C382.596 359.618 384.332 353.395 386.4 347.28C388.64 337.92 385.92 333.68 387.92 331.68V331.2ZM137.44 370.16C136.48 370.16 118.48 368 118.4 355.04C118.564 350.258 119.869 345.584 122.207 341.409C124.545 337.234 127.848 333.679 131.84 331.04C134.898 343.882 136.773 356.976 137.44 370.16ZM259.68 200C318.48 199.52 334.16 210.72 337.12 210.72C340.08 210.72 340.64 194.72 339.92 191.12C339.2 187.52 310.24 173.44 258.72 173.2C207.2 172.96 186.08 185.76 183.44 186.72C173.84 190.08 177.68 210.72 180.64 212.64C183.6 214.56 200.88 200 259.68 200ZM186.88 192C188.88 187.84 213.04 178.48 261.52 180.8C310 183.12 332.72 191.2 332.72 193.84C332.72 196.48 334.4 200.8 332.72 200.8C308.868 193.958 284.073 190.987 259.28 192C235.338 192.917 211.557 196.322 188.32 202.16C185.6 201.36 186.24 193.04 186.88 192ZM343.6 267.12C344.88 221.6 303.6 214.96 281.12 224.08C258.64 233.2 249.12 268.16 267.68 293.6C286.24 319.04 342.32 312.4 343.6 266.88V267.12ZM273.6 288C258.16 267.12 265.6 238.72 284.64 230.88C303.68 223.04 336.96 228.8 335.92 266.24C334.88 303.68 289.04 309.04 273.6 288ZM247.52 262.4C248.72 220.48 210.48 214.4 190 222.4C169.52 230.4 160.32 263.04 177.68 286.4C195.04 309.76 246.32 304 247.52 262.4ZM193.2 229.44C210.08 222.56 241.2 227.52 240.48 262C239.76 296.48 197.28 301.28 183.04 282.08C168.8 262.88 176 236.64 193.2 229.44ZM216 263.2C216.12 261.699 215.843 260.193 215.195 258.834C214.547 257.474 213.552 256.31 212.311 255.458C211.069 254.606 209.625 254.096 208.124 253.981C206.622 253.865 205.117 254.148 203.76 254.8C202.594 255.43 201.583 256.31 200.798 257.378C200.014 258.446 199.476 259.675 199.223 260.976C198.971 262.276 199.01 263.617 199.338 264.901C199.666 266.185 200.274 267.38 201.12 268.4C202.232 269.683 203.705 270.603 205.346 271.04C206.987 271.477 208.722 271.411 210.325 270.851C211.928 270.29 213.326 269.261 214.338 267.897C215.35 266.533 215.929 264.897 216 263.2ZM310 266.8C310.12 265.299 309.843 263.793 309.195 262.434C308.547 261.074 307.553 259.91 306.311 259.058C305.069 258.206 303.625 257.696 302.124 257.581C300.622 257.465 299.117 257.748 297.76 258.4C296.594 259.03 295.583 259.91 294.798 260.978C294.014 262.046 293.476 263.275 293.223 264.576C292.971 265.876 293.01 267.217 293.338 268.501C293.666 269.785 294.274 270.98 295.12 272C296.206 273.411 297.708 274.444 299.413 274.954C301.119 275.463 302.942 275.423 304.623 274.839C306.305 274.255 307.76 273.157 308.782 271.699C309.805 270.242 310.343 268.5 310.32 266.72L310 266.8ZM225.44 316.24C225.44 314.96 225.44 310.16 223.84 309.76C215.908 311.976 207.655 312.815 199.44 312.24C190.571 311.344 182.192 307.741 175.44 301.92C174.48 301.92 170.88 306.48 171.76 307.76C178.21 314.228 186.679 318.293 195.76 319.28C205.739 321.155 216.048 320.099 225.44 316.24ZM341.44 305.12C335.021 310.242 327.769 314.22 320 316.88C311.487 319.568 302.353 319.568 293.84 316.88C292.88 316.88 291.36 322.8 292.72 323.68C301.046 327.128 310.292 327.664 318.96 325.2C329.041 323.08 338.277 318.045 345.52 310.72C345.04 309.28 343.12 304.88 341.44 305.12ZM257.04 368C243.44 368 244.96 318.88 244.48 317.28C244 315.68 238.16 317.28 238.24 318.08C238.32 318.88 233.36 376.32 257.36 376.64C281.36 376.96 273.76 316.24 273.76 316.24C271.67 315.864 269.53 315.864 267.44 316.24C266.16 317.36 270.72 368 257.04 368ZM187.92 371.12C186.56 371.12 180.64 375.84 178.72 380.16C177.438 384.71 176.924 389.441 177.2 394.16C178.845 395.38 180.832 396.052 182.88 396.08C183.84 396.08 183.52 388.8 183.76 384.8C184 380.8 190 377.44 190.96 376.08C191.92 374.72 189.28 371.76 188 371.44L187.92 371.12ZM318.08 366.8C316.72 366.8 312.48 371.84 312.48 371.84C316.97 373.27 321 375.865 324.16 379.36C327.84 384.64 324.64 393.6 324.64 394.64C324.64 395.68 328.64 394.64 330.96 394.64C333.28 394.64 333.2 386.64 330.16 378.64C329.033 376.005 327.391 373.621 325.33 371.629C323.27 369.637 320.832 368.077 318.16 367.04L318.08 366.8ZM250.24 398.8C212.72 400.08 196.64 389.12 195.04 388.64C193.44 388.16 192.08 394.64 192.8 396C193.52 397.36 210.8 406.48 248.8 407.2C286.8 407.92 313.44 394.4 313.76 393.04C313.823 390.752 313.358 388.479 312.4 386.4C292.406 393.482 271.5 397.658 250.32 398.8H250.24Z" fill="#191919"/>
<path d="M273.84 482.64C269.838 483.844 265.591 483.982 261.52 483.04C257.809 481.161 253.674 480.279 249.52 480.48C246.24 481.2 244.24 483.52 243.2 482.16C241.925 477.173 241.439 472.017 241.76 466.88C242.72 465.92 251.76 467.44 260.72 466.88C269.68 466.32 274 466.48 274 467.44C274 468.4 275.2 482.32 273.84 482.64ZM339.76 418.64C336.63 422.375 333.206 425.853 329.52 429.04C323.375 424.167 316.786 419.882 309.84 416.24C308.16 416.88 305.84 419.28 306.56 420.56C307.28 421.84 322.56 432.72 321.92 433.76C321.28 434.8 312.64 440.8 311.68 439.84C305.427 434.413 298.855 429.364 292 424.72C290.64 424.72 286.72 427.76 287.36 429.04C288 430.32 306.4 442.16 304.4 443.52C302.4 444.88 291.84 449.6 290.48 448.64C289.12 447.68 275.04 433.12 273.76 433.2C272.48 433.28 268.8 435.2 269.84 436.88C270.88 438.56 281.28 451.04 281.28 451.04C259.632 453.629 237.738 453.36 216.16 450.24C186.56 444.8 165.68 412.08 156.16 377.28C146.64 342.48 146.64 268.4 156.96 227.44C167.28 186.48 185.52 137.84 249.6 137.36C281.6 137.36 320.4 139.12 350.64 192C380.88 244.88 377.6 287.2 369.36 334.48C361.12 381.76 348 410 339.84 419.04L339.76 418.64ZM387.92 331.2C388.96 330.16 406.88 331.2 403.92 346.72C400.96 362.24 381.6 368 381.2 365.92C382.596 359.618 384.332 353.395 386.4 347.28C388.64 337.92 385.92 333.68 387.92 331.68V331.2ZM137.44 370.16C136.48 370.16 118.48 368 118.4 355.04C118.564 350.258 119.869 345.584 122.207 341.409C124.545 337.234 127.848 333.679 131.84 331.04C134.898 343.881 136.773 356.976 137.44 370.16ZM259.68 200C318.48 199.52 334.16 210.72 337.12 210.72C340.08 210.72 340.64 194.72 339.92 191.12C339.2 187.52 310.24 173.44 258.72 173.2C207.2 172.96 186.08 185.76 183.44 186.72C173.84 190.08 177.68 210.72 180.64 212.64C183.6 214.56 200.88 200 259.68 200ZM343.6 267.12C344.88 221.6 303.6 214.96 281.12 224.08C258.64 233.2 249.12 268.16 267.68 293.6C286.24 319.04 342.32 312.4 343.6 266.88V267.12ZM247.52 262.4C248.72 220.48 210.48 214.4 190 222.4C169.52 230.4 160.32 263.04 177.68 286.4C195.04 309.76 246.32 304 247.52 262.4ZM225.44 316.24C225.44 314.96 225.44 310.16 223.84 309.76C215.908 311.976 207.655 312.815 199.44 312.24C190.57 311.344 182.191 307.741 175.44 301.92C174.48 301.92 170.88 306.48 171.76 307.76C178.21 314.228 186.679 318.293 195.76 319.28C205.739 321.155 216.048 320.099 225.44 316.24ZM341.44 305.12C335.021 310.242 327.769 314.22 320 316.88C311.487 319.568 302.353 319.568 293.84 316.88C292.88 316.88 291.36 322.8 292.72 323.68C301.046 327.128 310.292 327.664 318.96 325.2C329.041 323.08 338.277 318.045 345.52 310.72C345.04 309.28 343.12 304.88 341.44 305.12ZM257.04 368C243.44 368 244.96 318.88 244.48 317.28C244 315.68 238.16 317.28 238.24 318.08C238.32 318.88 233.36 376.32 257.36 376.64C281.36 376.96 273.76 316.24 273.76 316.24C271.67 315.864 269.53 315.864 267.44 316.24C266.16 317.36 270.72 368 257.04 368ZM187.92 371.12C186.56 371.12 180.64 375.84 178.72 380.16C177.438 384.71 176.924 389.441 177.2 394.16C178.845 395.38 180.832 396.052 182.88 396.08C183.84 396.08 183.52 388.8 183.76 384.8C184 380.8 190 377.44 190.96 376.08C191.92 374.72 189.28 371.76 188 371.44L187.92 371.12ZM318.08 366.8C316.72 366.8 312.48 371.84 312.48 371.84C316.97 373.27 321 375.864 324.16 379.36C327.84 384.64 324.64 393.6 324.64 394.64C324.64 395.68 328.64 394.64 330.96 394.64C333.28 394.64 333.2 386.64 330.16 378.64C329.033 376.005 327.391 373.621 325.33 371.629C323.27 369.637 320.832 368.077 318.16 367.04L318.08 366.8ZM250.24 398.8C212.72 400.08 196.64 389.12 195.04 388.64C193.44 388.16 192.08 394.64 192.8 396C193.52 397.36 210.8 406.48 248.8 407.2C286.8 407.92 313.44 394.4 313.76 393.04C313.823 390.752 313.358 388.479 312.4 386.4C292.406 393.482 271.5 397.658 250.32 398.8H250.24Z" fill="#D8CDCA"/>
<path fill-rule="evenodd" clip-rule="evenodd" d="M164.24 96C161.353 84.0532 159.136 71.9543 157.6 59.76C167.727 62.5312 177.56 66.2822 186.96 70.96C186.96 72.24 186.96 77.92 186 77.92C180.323 76.3714 174.55 75.1956 168.72 74.4C168.72 74.7508 169.094 76.9179 169.553 79.5776C170.35 84.1961 171.403 90.3001 171.2 90.96C170.88 92 164.88 96.96 164.24 96ZM288 76C295.829 69.2671 304.454 63.5177 313.68 58.88C318.587 57.1218 320.609 55.6562 321.638 54.9104C322.623 54.197 322.699 54.1422 323.52 55.12C325.2 57.12 327.2 62.48 326.24 63.12C317.967 65.9517 309.94 69.4567 302.24 73.6C298.453 76.1114 296.474 78.1063 295.193 79.3967C293.904 80.696 293.323 81.2811 292.32 80.96C291.063 80.5577 290.216 79.2069 289.423 77.9412C288.955 77.1934 288.505 76.4754 288 76ZM430.939 377.194C433.033 376.116 435.302 374.948 437.76 373.68V374.08C456.95 363.303 472.071 346.524 480.8 326.32C480.956 325.346 472.441 323.575 462.583 321.525C452.198 319.365 440.322 316.895 435.52 314.72C431.591 312.507 428.149 309.525 425.4 305.951C422.651 302.377 420.651 298.285 419.52 293.92C436.216 280.18 451.155 264.434 464 247.04C475.846 228.885 481.977 207.595 481.6 185.92C481.6 185.103 480.07 185.569 468.99 188.946C465.962 189.869 462.219 191.009 457.6 192.4C436.08 198.88 424.8 202.24 422.8 201.28C420.8 200.32 424.72 187.68 434.24 172.96C446.046 149.662 455.739 125.351 463.2 100.32C463.061 99.3115 458.734 101.1 451.298 104.173C441.628 108.17 426.698 114.34 408.88 119.36C387.402 125.304 365.156 128.001 342.88 127.36C340.48 126.72 341.76 115.44 344 104.8C346.24 94.16 357.68 37.12 357.68 35.76C357.68 34.4 345.76 35.2 310.32 48.72C287.618 57.3807 268.625 70.8342 256.433 79.4703C249.592 84.3159 244.893 87.645 242.88 87.76C239.858 87.9327 238.164 86.5675 233.937 83.1613C230.332 80.2562 224.885 75.8665 215.2 69.68C192.321 57.2602 168.185 47.3109 143.2 40C141.115 40 147.648 81.1339 151.855 107.622C153.782 119.753 155.22 128.812 155.12 129.44C154.967 130.393 130.924 130.238 105.535 130.074C77.6471 129.894 48.1362 129.704 46.8799 130.96C45.9199 131.92 46.7199 149.52 60.8799 176C70.9176 193.797 82.8539 210.454 96.4799 225.68C91.1191 232.9 84.2367 238.854 76.3199 243.12C60.4186 255.923 46.0559 270.527 33.5199 286.64C33.2194 287.279 35.336 287.441 40.3174 287.823C45.9431 288.254 55.2224 288.966 68.7999 290.96C94.3999 294.72 106.16 308.56 106.48 311.6C106.683 313.532 103.301 317.596 96.332 325.968C92.3346 330.771 87.1572 336.991 80.7999 345.04C63.3599 367.12 45.9199 393.84 46.6399 397.12C47.2592 399.941 103.04 397.909 120.159 397.286C122.943 397.184 124.704 397.12 125.04 397.12C127.44 397.12 134.08 404.32 135.44 408C136.277 410.266 132.687 424.055 129.879 434.842C128.125 441.576 126.677 447.139 126.8 448C127.12 450.24 166.08 435.36 166.08 435.36C166.08 435.36 161.76 429.76 152 414.88C146.083 405.566 143.049 394.712 143.28 383.68C143.28 383.68 104.8 390.96 103.84 354.4C102.88 317.84 132.4 316.64 132.4 316.64C132.4 316.64 128.48 281.36 143.28 219.6C158.08 157.84 190.4 126.08 250.8 123.6C311.2 121.12 340.96 145.2 368.88 190.72C396.8 236.24 387.52 318.72 387.52 318.72C391.102 318.762 394.67 319.192 398.16 320C403.44 320.88 421.44 325.04 418 350.72C414.56 376.4 378 374.72 378 374.72C376.913 382.972 374.734 391.043 371.52 398.72C365.522 411.652 357.915 423.774 348.88 434.8C348.88 435.76 353.52 439.36 364.88 443.28C377.942 447.03 391.339 449.495 404.88 450.64C406.42 450.375 406.056 425.786 405.802 408.558C405.673 399.832 405.572 392.994 405.76 392.16C406.271 389.897 409.113 388.434 430.939 377.194Z" fill="#B4E6FC"/>
<path d="M186.88 192C188.88 187.84 213.04 178.48 261.52 180.8C310 183.12 332.72 191.2 332.72 193.84C332.72 196.48 334.4 200.8 332.72 200.8C308.868 193.958 284.073 190.987 259.28 192C235.338 192.917 211.557 196.322 188.32 202.16C185.6 201.36 186.24 193.04 186.88 192Z" fill="#B4E6FC"/>
<path d="M273.6 288C258.16 267.12 265.6 238.72 284.64 230.88C303.68 223.04 336.96 228.8 335.92 266.24C334.88 303.68 289.04 309.04 273.6 288ZM193.2 229.44C210.08 222.56 241.2 227.52 240.48 262C239.76 296.48 197.28 301.28 183.04 282.08C168.8 262.88 176 236.64 193.2 229.44ZM216 263.2C216.12 261.699 215.843 260.193 215.195 258.834C214.547 257.474 213.552 256.31 212.311 255.458C211.069 254.606 209.625 254.096 208.124 253.981C206.622 253.865 205.117 254.148 203.76 254.8C202.594 255.43 201.582 256.31 200.798 257.378C200.014 258.446 199.476 259.675 199.223 260.976C198.971 262.276 199.01 263.617 199.338 264.901C199.666 266.185 200.274 267.38 201.12 268.4C202.232 269.683 203.705 270.603 205.346 271.04C206.987 271.477 208.722 271.411 210.325 270.851C211.928 270.29 213.326 269.261 214.338 267.897C215.35 266.533 215.929 264.897 216 263.2ZM310 266.8C310.12 265.299 309.843 263.793 309.195 262.434C308.547 261.074 307.552 259.91 306.311 259.058C305.069 258.206 303.625 257.696 302.124 257.581C300.622 257.465 299.117 257.748 297.76 258.4C296.594 259.03 295.583 259.91 294.798 260.978C294.014 262.046 293.476 263.275 293.223 264.576C292.971 265.876 293.01 267.217 293.338 268.501C293.666 269.785 294.274 270.98 295.12 272C296.205 273.411 297.707 274.444 299.413 274.954C301.119 275.463 302.942 275.423 304.623 274.839C306.305 274.255 307.76 273.157 308.782 271.699C309.805 270.242 310.343 268.5 310.32 266.72L310 266.8Z" fill="white"/>
</svg>
